<?xml version="1.0" standalone="no"?>
<!DOCTYPE svg PUBLIC "-//W3C//DTD SVG 20010904//EN"
 "http://www.w3.org/TR/2001/REC-SVG-20010904/DTD/svg10.dtd">
<svg version="1.0" xmlns="http://www.w3.org/2000/svg"
 width="18987.000000pt" height="5788.000000pt" viewBox="0 0 18987.000000 5788.000000"
 preserveAspectRatio="xMidYMid meet">

<g transform="translate(0.000000,5788.000000) scale(0.100000,-0.100000)"
fill="#000000" stroke="none">
<path d="M64520 37679 c-1777 -72 -3245 -575 -4340 -1487 -143 -120 -428 -404
-539 -537 -362 -437 -602 -910 -735 -1452 -64 -262 -93 -490 -102 -808 -26
-861 216 -1642 712 -2300 231 -308 549 -619 894 -876 917 -683 2265 -1231
4450 -1809 1334 -353 2271 -675 3026 -1040 867 -418 1370 -864 1669 -1475 92
-188 136 -307 185 -500 146 -570 122 -1228 -62 -1729 -147 -399 -400 -767
-735 -1067 -609 -547 -1430 -915 -2418 -1083 -1098 -187 -2460 -142 -3490 115
-1321 330 -2356 1043 -2859 1968 -124 229 -219 468 -280 703 -71 271 -100 465
-118 781 l-11 207 -774 0 -773 0 0 -97 c0 -126 16 -355 36 -513 153 -1228 772
-2277 1796 -3047 1001 -753 2516 -1275 4088 -1408 566 -47 1326 -49 1880 -5
1553 126 2798 547 3775 1277 742 554 1221 1217 1454 2016 112 382 158 768 148
1227 -8 362 -41 623 -118 932 -121 483 -318 900 -610 1291 -520 696 -1290
1265 -2344 1734 -807 359 -1829 691 -3255 1058 -1753 451 -2925 935 -3680
1519 -137 106 -360 323 -471 459 -272 332 -440 699 -516 1127 -34 195 -44 572
-19 783 91 789 484 1420 1201 1932 627 447 1425 730 2370 839 560 66 1261 73
1800 20 948 -93 1770 -374 2417 -827 206 -144 328 -247 524 -442 191 -189 293
-309 417 -487 374 -535 579 -1181 604 -1895 l6 -183 784 0 783 0 0 53 c-1 226
-42 623 -91 872 -237 1202 -959 2267 -2029 2994 -1237 840 -2815 1234 -4650
1160z"/>
<path d="M95112 37680 c-1187 -53 -2188 -279 -3079 -693 -646 -301 -1252 -732
-1667 -1187 -570 -624 -880 -1322 -955 -2150 -16 -171 -14 -586 4 -758 66
-642 276 -1211 630 -1707 238 -333 558 -659 921 -937 631 -482 1511 -908 2719
-1314 579 -195 1029 -328 1770 -524 1370 -362 2345 -700 3096 -1076 497 -248
822 -467 1095 -739 218 -217 370 -429 504 -700 203 -410 292 -854 277 -1375
-21 -730 -271 -1309 -786 -1820 -175 -174 -312 -286 -521 -425 -541 -359
-1128 -591 -1860 -734 -912 -177 -2108 -186 -3093 -21 -1100 184 -2019 596
-2709 1216 -424 380 -752 881 -921 1409 -99 307 -151 620 -166 980 l-6 160
-769 3 c-424 1 -773 -1 -778 -6 -10 -10 8 -384 28 -552 142 -1252 769 -2327
1808 -3102 1003 -749 2461 -1254 4031 -1397 610 -56 1362 -58 1990 -5 1793
149 3254 741 4221 1708 406 408 676 821 866 1326 271 724 309 1636 103 2450
-265 1045 -998 1919 -2185 2605 -863 498 -2109 948 -3920 1415 -1305 336
-2159 632 -2900 1006 -526 264 -864 496 -1165 798 -469 470 -706 1020 -732
1691 -29 776 245 1460 804 2006 863 843 2203 1264 3933 1236 556 -9 945 -51
1408 -153 1494 -326 2628 -1262 3027 -2495 104 -322 162 -668 180 -1066 l7
-153 779 0 779 0 0 119 c0 237 -37 568 -95 851 -228 1105 -872 2095 -1832
2816 -908 682 -2160 1136 -3473 1259 -406 38 -978 52 -1368 35z"/>
<path d="M162960 37679 c-1548 -62 -2854 -449 -3895 -1153 -651 -440 -1134
-962 -1435 -1551 -197 -386 -323 -819 -372 -1285 -19 -185 -16 -657 5 -845
134 -1148 737 -2068 1837 -2802 896 -597 2203 -1105 4200 -1633 2051 -542
3314 -1064 4025 -1662 111 -93 290 -276 375 -383 348 -438 534 -954 570 -1580
27 -474 -54 -931 -235 -1321 -450 -968 -1581 -1689 -3050 -1944 -1103 -192
-2472 -148 -3510 111 -1206 301 -2171 918 -2723 1741 -74 109 -182 306 -241
438 -175 387 -265 778 -293 1268 l-11 212 -775 0 -775 0 6 -187 c38 -1050 395
-1978 1063 -2759 121 -141 399 -416 539 -533 955 -796 2368 -1351 3935 -1545
454 -57 806 -77 1340 -77 612 0 1031 28 1552 101 1141 161 2123 514 2923 1050
989 663 1585 1529 1764 2563 47 267 56 388 55 737 0 359 -10 487 -60 772 -189
1081 -808 1960 -1889 2679 -930 619 -2224 1111 -4390 1668 -1449 373 -2459
754 -3230 1218 -829 499 -1284 1101 -1422 1883 -34 195 -44 572 -19 785 49
423 176 779 400 1120 414 630 1154 1140 2061 1422 570 177 1207 267 1970 280
706 12 1259 -44 1823 -183 697 -171 1300 -467 1812 -887 125 -103 423 -406
524 -532 465 -584 715 -1284 743 -2082 l6 -183 784 0 783 0 0 53 c0 201 -33
541 -75 787 -210 1215 -946 2328 -2028 3068 -1240 847 -2826 1245 -4667 1171z"/>
<path d="M20040 28935 l0 -8515 1585 0 1585 0 0 2863 0 2864 -155 3684 c-85
2026 -154 3687 -152 3692 1 4 1220 -2941 2709 -6545 l2706 -6553 1143 0 1143
0 2707 6545 c1489 3599 2711 6551 2716 6559 5 9 8 -12 5 -55 -1 -38 -72 -1729
-157 -3758 l-155 -3689 0 -2803 0 -2804 1590 0 1590 0 0 8515 0 8515 -2064 0
-2063 0 -34 -82 c-19 -46 -1209 -2982 -2644 -6525 -1436 -3544 -2612 -6443
-2615 -6443 -3 0 -1197 2937 -2654 6525 l-2650 6525 -2068 0 -2068 0 0 -8515z"/>
<path d="M42680 28935 l0 -8515 1595 0 1595 0 0 2658 0 2657 921 905 c506 498
976 957 1043 1022 l122 116 2765 -3679 2764 -3679 1888 0 c1038 0 1887 3 1887
6 0 3 -1621 2135 -3601 4737 -1981 2602 -3602 4736 -3603 4742 -1 6 1518 1689
3375 3740 1856 2052 3390 3747 3408 3768 l33 37 -1928 0 -1929 0 -2706 -3003
c-1977 -2194 -2939 -3268 -3570 -3992 l-864 -989 -3 3992 -2 3992 -1595 0
-1595 0 0 -8515z"/>
<path d="M72769 37388 c22 -35 1514 -2425 3315 -5313 l3276 -5250 0 -3202 0
-3203 775 0 775 0 0 3205 0 3206 3320 5309 3319 5310 -897 0 -897 0 -2805
-4640 c-1543 -2552 -2807 -4639 -2810 -4639 -3 -1 -1256 2087 -2785 4639
l-2780 4639 -923 1 -922 0 39 -62z"/>
<path d="M103680 36845 l0 -605 3140 0 3140 0 0 -7910 0 -7910 780 0 780 0 0
7910 0 7910 3150 0 3150 0 0 605 0 605 -7070 0 -7070 0 0 -605z"/>
<path d="M120790 28935 l0 -8515 5720 0 5720 0 -2 608 -3 607 -4942 3 -4943 2
0 3475 0 3475 4300 0 4300 0 0 605 0 605 -4300 0 -4300 0 0 3220 0 3220 4910
0 4910 0 0 605 0 605 -5685 0 -5685 0 0 -8515z"/>
<path d="M135500 28935 l0 -8515 775 0 775 0 0 3716 0 3716 -59 3561 c-33
1959 -62 3652 -64 3762 -3 128 -1 195 5 185 5 -8 1539 -3372 3408 -7475 l3399
-7460 602 0 603 0 3415 7498 3416 7497 3 -137 c1 -76 -25 -1763 -58 -3750
l-60 -3611 0 -3751 0 -3751 775 0 775 0 0 8515 0 8515 -1036 -2 -1037 -3
-3397 -7503 c-1868 -4127 -3400 -7503 -3406 -7502 -5 1 -1532 3378 -3393 7506
l-3385 7504 -1028 0 -1028 0 0 -8515z"/>
</g>
</svg>
